# xmcd CD database file
#
# Track frame offsets:
#	150
#	16483
#	32235
#	66349
#	83301
#	98710
#	117251
#	134166
#	152451
#	173692
#	193965
#	208647
#	228116
#	242713
#	258358
#	282240
#	301625
#	318903
#	337880
#
# Disc length: 4713 seconds
#
# Revision: 2
# Processed by: cddbd v1.4b41PL1 Copyright (c) Steve Scherf et al.
# Submitted via: Feurio! 1.51.11ß - http://www.feurio.com
#
DISCID=f9126713
DTITLE=Various Artist - Bravo Hits 30 CD 2
DYEAR=1900
DGENRE=
TTITLE0=ATC - Around The World
TTITLE1=Zlatko and Jürgen - Großer Bruder
TTITLE2=Gigi D´agostino - La Passion
TTITLE3=Loona - Latino Lover
TTITLE4=Britney Spears - Lucky
TTITLE5=World Apart - Language Of Love
TTITLE6=Bon Jovi - It´s My Life
TTITLE7=Anastacia - I´m Outta Love
TTITLE8=Kai Tracid - Tiefenrausch
TTITLE9=Xavier Naidoo - Seine Straßen
TTITLE10=Mary Mary - Shackles
TTITLE11=Bloodhoundgang - Mope
TTITLE12=Bombfunk MC´s - B-Boys and Flygirls
TTITLE13=Dr Motte and Westbam - Loveparade 2000
TTITLE14=Limp Bizkit - Take A Look Around
TTITLE15=DJ Thomekk feat. GZA, Curse, Prodigal Sunn - Ich Lebe Für Hip Hop
TTITLE16=Antonias feat. Sandra - Ich bin viel Schöner
TTITLE17=Anton feat. DJ Ötzi - Gemma Bier Trinken
TTITLE18=E.A.V. - 3 Weisse Tauben
EXTD=
EXTT0=
EXTT1=
EXTT2=
EXTT3=
EXTT4=
EXTT5=
EXTT6=
EXTT7=
EXTT8=
EXTT9=
EXTT10=
EXTT11=
EXTT12=
EXTT13=
EXTT14=
EXTT15=
EXTT16=
EXTT17=
EXTT18=
PLAYORDER=
